<?xml version="1.0" encoding="utf-8"?>
<!-- Generator: Adobe Illustrator 16.0.0, SVG Export Plug-In . SVG Version: 6.00 Build 0)  -->
<!DOCTYPE svg PUBLIC "-//W3C//DTD SVG 1.1//EN" "http://www.w3.org/Graphics/SVG/1.1/DTD/svg11.dtd">
<svg version="1.1" id="Layer_1" xmlns="http://www.w3.org/2000/svg" xmlns:xlink="http://www.w3.org/1999/xlink" x="0px" y="0px"
	 width="439.333px" height="98px" viewBox="0 0 439.333 98" enable-background="new 0 0 439.333 98" xml:space="preserve">
<g>
	<defs>
		<rect id="SVGID_1_" width="439.333" height="98"/>
	</defs>
	<clipPath id="SVGID_2_">
		<use xlink:href="#SVGID_1_"  overflow="visible"/>
	</clipPath>
	<path clip-path="url(#SVGID_2_)" fill-rule="evenodd" clip-rule="evenodd" fill="#51AAAB" d="M49.011,20.568
		c-5.914,0-10.709,4.795-10.709,10.709c0,5.915,4.795,10.709,10.709,10.709S59.72,37.192,59.72,31.277
		C59.72,25.363,54.925,20.568,49.011,20.568"/>
	<path clip-path="url(#SVGID_2_)" fill-rule="evenodd" clip-rule="evenodd" fill="#744D60" d="M19.409,50.039
		c0,5.914,4.795,10.709,10.709,10.709c5.915,0,10.709-4.795,10.709-10.709c0-5.915-4.794-10.709-10.709-10.709
		C24.204,39.33,19.409,44.125,19.409,50.039"/>
	<path clip-path="url(#SVGID_2_)" fill-rule="evenodd" clip-rule="evenodd" fill="#E5C82A" d="M78.534,50.039
		c0,5.914-4.795,10.709-10.709,10.709c-5.915,0-10.709-4.795-10.709-10.709c0-5.915,4.794-10.709,10.709-10.709
		C73.739,39.33,78.534,44.125,78.534,50.039"/>
	<path clip-path="url(#SVGID_2_)" fill-rule="evenodd" clip-rule="evenodd" fill="#738D57" d="M49.011,79.693
		c-5.914,0-10.709-4.795-10.709-10.709c0-5.915,4.795-10.709,10.709-10.709S59.72,63.069,59.72,68.984
		C59.72,74.898,54.925,79.693,49.011,79.693"/>
	<path clip-path="url(#SVGID_2_)" fill="#51AAAB" d="M26.249,12.399c-2.37,0-4.298,1.928-4.298,4.298
		c0,2.371,1.928,4.299,4.298,4.299s4.298-1.928,4.298-4.299C30.547,14.328,28.619,12.399,26.249,12.399"/>
	<path clip-path="url(#SVGID_2_)" fill="#51AAAB" d="M40.628,6.185c-2.37,0-4.298,1.928-4.298,4.298
		c0,2.371,1.928,4.299,4.298,4.299c2.37,0,4.298-1.928,4.298-4.299C44.926,8.113,42.998,6.185,40.628,6.185"/>
	<path clip-path="url(#SVGID_2_)" fill="#51AAAB" d="M57.336,6.185c-2.37,0-4.298,1.928-4.298,4.298
		c0,2.371,1.928,4.299,4.298,4.299s4.298-1.928,4.298-4.299C61.634,8.113,59.706,6.185,57.336,6.185"/>
	<path clip-path="url(#SVGID_2_)" fill="#51AAAB" d="M71.694,12.399c-2.37,0-4.298,1.928-4.298,4.298
		c0,2.371,1.928,4.299,4.298,4.299s4.298-1.928,4.298-4.299C75.992,14.328,74.064,12.399,71.694,12.399"/>
	<path clip-path="url(#SVGID_2_)" fill="#738D57" d="M26.249,79.266c-2.37,0-4.298,1.928-4.298,4.298
		c0,2.371,1.928,4.299,4.298,4.299s4.298-1.928,4.298-4.299C30.547,81.193,28.619,79.266,26.249,79.266"/>
	<path clip-path="url(#SVGID_2_)" fill="#738D57" d="M40.628,85.479c-2.37,0-4.298,1.929-4.298,4.299
		c0,2.369,1.928,4.299,4.298,4.299c2.37,0,4.298-1.93,4.298-4.299C44.926,87.408,42.998,85.479,40.628,85.479"/>
	<path clip-path="url(#SVGID_2_)" fill="#738D57" d="M57.336,85.479c-2.37,0-4.298,1.929-4.298,4.299
		c0,2.369,1.928,4.299,4.298,4.299s4.298-1.93,4.298-4.299C61.634,87.408,59.706,85.479,57.336,85.479"/>
	<path clip-path="url(#SVGID_2_)" fill="#738D57" d="M71.694,79.266c-2.37,0-4.298,1.928-4.298,4.298
		c0,2.371,1.928,4.299,4.298,4.299s4.298-1.928,4.298-4.299C75.992,81.193,74.064,79.266,71.694,79.266"/>
	<path clip-path="url(#SVGID_2_)" fill="#744D60" d="M15.539,68.555c-2.37,0-4.298,1.928-4.298,4.298c0,2.371,1.928,4.3,4.298,4.3
		c2.37,0,4.298-1.929,4.298-4.3C19.836,70.482,17.908,68.555,15.539,68.555"/>
	<path clip-path="url(#SVGID_2_)" fill="#744D60" d="M13.623,58.474c0-2.369-1.928-4.298-4.298-4.298
		c-2.371,0-4.299,1.929-4.299,4.298c0,2.37,1.928,4.299,4.299,4.299C11.694,62.772,13.623,60.844,13.623,58.474"/>
	<path clip-path="url(#SVGID_2_)" fill="#744D60" d="M9.324,46.065c2.37,0,4.298-1.928,4.298-4.298c0-2.371-1.928-4.299-4.298-4.299
		c-2.37,0-4.298,1.928-4.298,4.299C5.026,44.137,6.954,46.065,9.324,46.065"/>
	<path clip-path="url(#SVGID_2_)" fill="#744D60" d="M15.539,23.11c-2.37,0-4.298,1.928-4.298,4.298c0,2.37,1.928,4.299,4.298,4.299
		c2.37,0,4.298-1.929,4.298-4.299C19.836,25.038,17.908,23.11,15.539,23.11"/>
	<path clip-path="url(#SVGID_2_)" fill="#E5C82A" d="M82.404,68.555c-2.37,0-4.298,1.928-4.298,4.298c0,2.371,1.928,4.3,4.298,4.3
		c2.37,0,4.298-1.929,4.298-4.3C86.703,70.482,84.774,68.555,82.404,68.555"/>
	<path clip-path="url(#SVGID_2_)" fill="#E5C82A" d="M88.619,54.176c-2.37,0-4.298,1.928-4.298,4.298
		c0,2.371,1.928,4.299,4.298,4.299c2.37,0,4.298-1.928,4.298-4.299C92.917,56.104,90.989,54.176,88.619,54.176"/>
	<path clip-path="url(#SVGID_2_)" fill="#E5C82A" d="M84.32,41.767c0,2.37,1.928,4.298,4.298,4.298c2.371,0,4.299-1.928,4.299-4.298
		c0-2.37-1.928-4.298-4.299-4.298C86.249,37.468,84.32,39.396,84.32,41.767"/>
	<path clip-path="url(#SVGID_2_)" fill="#E5C82A" d="M82.404,31.707c2.37,0,4.298-1.928,4.298-4.298s-1.928-4.299-4.298-4.299
		c-2.37,0-4.298,1.929-4.298,4.299S80.035,31.707,82.404,31.707"/>
	<path clip-path="url(#SVGID_2_)" fill="#4E4D43" d="M185.308,48.033c-2.184,1.845-4.854,2.767-8.105,2.767
		c-1.991,0-3.69-0.389-5.146-1.165c-0.631-0.34-0.922-0.68-0.922-1.068c0-0.145,0.049-0.34,0.146-0.534l0.291-0.631
		c0.048-0.243,0.194-0.34,0.437-0.34c0.291,0,0.631,0.097,1.116,0.389c0.777,0.436,1.651,0.631,2.67,0.631
		c1.699,0,3.107-0.631,4.125-1.845c1.02-1.213,1.554-2.863,1.554-4.853c0-2.136-0.68-3.835-1.99-5.145
		c-1.311-1.263-3.058-1.894-5.291-1.894c-1.165,0-1.989,0.146-2.476,0.486c-0.436,0.291-0.727,0.728-0.873,1.31
		c-0.145,0.583-0.243,1.699-0.243,3.398l-0.048,4.417v11.116c0,1.844,0.097,3.3,0.291,4.417c0.194,1.019,0.776,1.795,1.796,2.184
		c0.485,0.146,1.456,0.34,2.961,0.582c0.533,0.049,0.776,0.34,0.776,0.825v0.631c0,0.631-0.145,0.777-0.825,0.777
		c0,0-0.874-0.048-2.718-0.146c-1.214-0.048-2.718-0.097-4.514-0.097c-1.068,0-2.573,0.049-4.465,0.097
		c-1.845,0.099-3.059,0.146-3.592,0.146h-0.146c-0.582,0-0.873-0.194-0.873-0.631v-0.632c0-0.582,0.63-0.922,1.892-1.067
		c1.116-0.098,1.845-0.583,2.234-1.456c0.387-0.874,0.582-2.476,0.582-4.756v-14.66c0-1.504,0-2.669-0.097-3.543
		c-0.147-1.796-1.117-2.815-3.01-3.009c-1.116-0.097-1.65-0.486-1.65-1.068v-0.874c0-0.437,0.388-0.679,1.116-0.679
		c0.776,0,1.554,0,2.379,0.097c1.65,0.097,2.961,0.194,3.931,0.194c0.631,0,2.378-0.146,5.243-0.34
		c2.426-0.194,4.125-0.291,5.048-0.291c3.542,0,6.358,0.874,8.494,2.572c2.135,1.699,3.203,3.932,3.203,6.747
		C188.608,43.859,187.541,46.14,185.308,48.033"/>
	<path clip-path="url(#SVGID_2_)" fill="#4E4D43" d="M206.079,62.984c-1.99,1.406-4.223,2.086-6.747,2.086
		c-3.106,0-5.63-0.97-7.62-2.96c-1.941-1.991-2.961-4.563-2.961-7.621c0-3.351,1.116-6.213,3.252-8.495
		c2.185-2.329,4.854-3.494,8.009-3.494c2.766,0,5.048,0.825,6.843,2.572c1.749,1.699,2.67,3.883,2.67,6.504
		c0,0.68-0.145,1.118-0.534,1.263c-0.193,0.098-0.727,0.146-1.601,0.146h-11.746c-0.582,0-0.922,0.193-1.02,0.533
		c-0.097,0.193-0.097,0.484-0.097,0.824c0,1.895,0.68,3.544,2.038,5c1.36,1.407,2.914,2.137,4.757,2.137
		c1.796,0,3.399-0.583,4.855-1.748l1.747-1.408c0.194-0.096,0.34-0.194,0.534-0.194c0.193,0,0.34,0.099,0.485,0.194l0.291,0.195
		h0.049c0.194,0.193,0.291,0.388,0.291,0.631C209.574,60.07,208.409,61.333,206.079,62.984 M202.293,46.237
		c-0.825-0.922-1.796-1.359-2.961-1.359c-1.213,0-2.329,0.534-3.252,1.553c-0.922,1.02-1.407,2.184-1.407,3.544
		c0,0.388,0.194,0.581,0.582,0.679h1.068h5.533c0.729,0,1.166-0.048,1.36-0.146c0.242-0.097,0.388-0.484,0.388-1.066
		C203.604,48.179,203.167,47.159,202.293,46.237"/>
	<path clip-path="url(#SVGID_2_)" fill="#4E4D43" d="M229.86,47.791c-1.068,1.214-1.895,1.845-2.477,1.845
		c-0.436,0-0.874-0.292-1.261-0.825c-0.195-0.243-0.438-0.583-0.68-0.874c-0.39-0.437-0.874-0.631-1.456-0.631
		c-1.65,0-2.477,1.7-2.477,5.145v5.389c0,1.31,0.146,2.231,0.486,2.766c0.437,0.729,1.456,1.262,3.106,1.505
		c0.776,0.146,1.165,0.486,1.115,1.021l-0.048,0.581c-0.048,0.534-0.437,0.776-1.165,0.776h-0.388l-2.136-0.145
		c-0.972-0.049-2.524-0.098-4.708-0.098c-1.699,0-3.204,0.098-4.562,0.242h-0.389c-0.534,0-0.825-0.242-0.825-0.776V63.13
		c0-0.438,0.291-0.777,0.825-0.874c1.165-0.291,1.941-0.729,2.33-1.263c0.388-0.583,0.582-1.601,0.582-3.01v-6.407
		c0-0.775,0-1.408-0.048-1.747c-0.098-1.31-0.728-2.039-1.893-2.185c-1.02-0.145-1.602-0.291-1.747-0.436
		c-0.098-0.097-0.146-0.292-0.146-0.631v-0.486c0-0.679,0.34-0.776,1.213-0.776h0.583c1.601,0,3.154-0.534,4.61-1.65
		c0.923-0.729,1.603-1.068,1.99-1.068h0.39c0.146,0,0.241,0,0.291,0.048c0.194,0.097,0.291,0.194,0.291,0.291
		c0,0.098,0.049,0.292,0.049,0.68v2.767c0.437-0.534,0.922-1.068,1.358-1.553c1.359-1.505,2.768-2.233,4.224-2.233
		c1.02,0,1.893,0.339,2.67,0.97c0.825,0.631,1.213,1.408,1.213,2.233C230.782,46.383,230.491,47.062,229.86,47.791"/>
	<path clip-path="url(#SVGID_2_)" fill="#4E4D43" d="M247.138,62.983c-1.649,1.407-3.688,2.087-6.164,2.087
		c-1.164,0-2.379-0.146-3.641-0.438l-1.699-0.387c-0.291-0.05-0.533-0.099-0.872-0.099c-0.291,0-0.583,0.099-0.777,0.243
		l-0.485,0.389c-0.194,0.146-0.388,0.242-0.582,0.242c-0.146,0-0.291-0.049-0.437-0.145l-0.341-0.244
		c-0.242-0.193-0.388-0.387-0.388-0.678c0-0.243,0.146-0.681,0.34-1.312c0.194-0.534,0.291-1.117,0.243-1.649l-0.195-2.816
		c0-0.825,0.341-1.31,0.972-1.456l0.388-0.097c-0.048,0,0.049-0.048,0.243-0.048c0.484,0,0.825,0.532,0.922,1.649
		c0.145,1.262,0.777,2.281,1.941,3.107c1.166,0.873,2.573,1.261,4.176,1.261c2.716,0,4.076-0.97,4.076-2.815
		c0-0.873-0.341-1.553-0.972-2.087c-0.631-0.484-1.94-1.02-3.883-1.554c-2.522-0.727-4.32-1.504-5.387-2.378
		c-1.408-1.116-2.088-2.621-2.088-4.465c0-2.039,0.68-3.689,2.136-4.951s3.349-1.893,5.63-1.893c0.487,0,1.166,0.048,2.088,0.194
		l2.039,0.291c0.437,0.097,0.728,0.097,0.728,0.097c0.437,0,1.019-0.097,1.601-0.388c0.584-0.243,1.02-0.389,1.166-0.389
		c0.194,0,0.34,0.049,0.438,0.243l0.193,0.243c0.147,0.194,0.242,0.388,0.242,0.534c0,0.145-0.095,0.485-0.242,0.922
		c-0.193,0.534-0.291,1.214-0.291,2.038c0,0.098,0.049,0.437,0.049,0.972c0,0.533,0.049,0.97,0.049,1.407v0.194
		c0,0.777-0.34,1.165-0.971,1.165l-0.535,0.049c-0.34,0-0.582-0.437-0.729-1.311c-0.145-1.116-0.775-2.039-1.794-2.767
		c-0.972-0.776-2.138-1.165-3.448-1.165c-2.232,0-3.785,1.117-3.785,2.67c0,0.825,0.39,1.554,1.164,2.039
		c0.778,0.485,2.33,1.068,4.612,1.65c1.748,0.486,3.058,0.971,3.835,1.407c1.941,1.166,2.913,2.865,2.913,5.146
		C249.615,59.829,248.788,61.576,247.138,62.983"/>
	<path clip-path="url(#SVGID_2_)" fill="#4E4D43" d="M273.688,61.867c-2.33,2.184-5.34,3.252-8.933,3.252
		c-3.444,0-6.309-1.02-8.543-3.106c-2.28-2.136-3.396-4.757-3.396-7.961c0-3.397,1.212-6.164,3.591-8.349
		c2.379-2.184,5.436-3.252,9.174-3.252c3.397,0,6.164,1.068,8.397,3.155c2.183,2.136,3.3,4.805,3.3,8.106
		S276.114,59.731,273.688,61.867 M269.464,47.742c-1.311-1.893-2.961-2.864-4.854-2.864c-1.748,0-3.156,0.728-4.271,2.233
		c-1.067,1.408-1.602,3.349-1.602,5.679c0,2.767,0.631,5.145,1.942,7.038c1.358,1.893,2.961,2.864,4.901,2.864
		c1.746,0,3.154-0.729,4.224-2.185c1.114-1.456,1.649-3.349,1.649-5.727C271.454,52.014,270.775,49.683,269.464,47.742"/>
	<path clip-path="url(#SVGID_2_)" fill="#4E4D43" d="M308.194,63.662c0,0.534-0.291,0.777-0.873,0.777
		c0.097,0-0.631-0.048-2.28-0.146c-0.535,0-1.408-0.049-2.526-0.049c-2.522,0-4.222,0.049-5.047,0.146
		c-0.291,0-0.729,0.048-1.311,0.048c-0.532,0-0.825-0.243-0.825-0.777V63.13c0-0.243,0.049-0.39,0.146-0.486
		c0.099-0.048,0.631-0.292,1.603-0.63c1.067-0.39,1.601-1.7,1.601-3.835v-5.438c0-4.514-1.504-6.747-4.465-6.747
		c-1.408,0-2.572,0.534-3.542,1.602c-0.971,1.068-1.458,2.572-1.458,4.563v6.747c0,1.844,0.631,2.912,1.893,3.203
		c0.924,0.195,1.359,0.486,1.359,0.874v0.679c0,0.534-0.339,0.777-1.02,0.777c-0.631,0-1.163-0.048-1.649-0.048
		c-1.407-0.098-2.815-0.146-4.272-0.146c-1.213,0-2.377,0.049-3.543,0.146c-0.389,0-0.922,0.048-1.601,0.048
		c-0.438,0-0.631-0.194-0.631-0.583v-0.582c0-0.437,0.146-0.776,0.533-0.923c0.098-0.047,0.534-0.146,1.166-0.242
		c0.971-0.145,1.601-0.776,1.844-1.796c0.146-0.437,0.194-1.407,0.194-2.864v-5.29c0-1.65-0.194-2.864-0.631-3.641
		c-0.244-0.437-0.924-0.728-2.088-0.825c-0.68-0.049-1.019-0.388-1.019-0.922v-0.437c0-0.631,0.242-0.776,1.117-0.776
		c0.922,0,1.94-0.243,3.056-0.68c1.166-0.437,2.088-1.019,2.817-1.651c0.532-0.485,0.971-0.728,1.262-0.728h0.192l0.438,0.049
		c0.291,0,0.438,0.34,0.438,0.971v2.669c0.824-0.97,1.603-1.698,2.328-2.135c1.65-1.019,3.399-1.554,5.291-1.554
		c2.379,0,4.272,0.826,5.681,2.524c1.358,1.602,2.039,4.077,2.039,7.33v5.63c0,1.991,0.291,3.204,0.872,3.641
		c0.291,0.242,1.02,0.485,2.184,0.728c0.487,0.098,0.729,0.292,0.729,0.583V63.662z"/>
	<path clip-path="url(#SVGID_2_)" fill="#4E4D43" d="M329.937,63.13c-1.649,1.31-3.202,1.94-4.562,1.94
		c-1.066,0-1.893-0.34-2.523-1.019c-0.389-0.34-0.776-1.021-1.116-1.991c-0.681,0.583-1.358,1.069-2.037,1.505
		c-1.556,1.021-3.205,1.554-4.903,1.554c-1.65,0-2.961-0.485-4.029-1.407c-1.067-0.972-1.601-2.137-1.601-3.593
		c0-2.087,1.115-3.932,3.3-5.532c2.184-1.603,5.194-2.719,8.93-3.398v-1.262c0-2.961-1.455-4.466-4.416-4.466
		c-1.797,0-2.768,0.534-2.912,1.651l-0.146,1.165c-0.095,0.776-0.582,1.164-1.455,1.164c-0.437,0-0.826-0.291-1.117-0.825
		l-0.533-0.971c-0.194-0.388-0.291-0.631-0.291-0.922c0-0.922,1.359-1.99,4.125-3.155c1.748-0.728,3.494-1.116,5.242-1.116
		c1.797,0,3.399,0.436,4.709,1.359c1.697,1.165,2.524,3.203,2.524,6.116c0,0.874-0.049,1.649-0.049,2.378l-0.194,4.903
		c0,2.33,0.582,3.543,1.698,3.543c0.437,0,0.97-0.195,1.603-0.534c0.34-0.194,0.582-0.291,0.776-0.291
		c0.097,0,0.291,0.097,0.437,0.243l0.242,0.387c0.147,0.195,0.194,0.34,0.194,0.389C331.83,61.382,331.199,62.158,329.937,63.13
		 M321.394,53.615c-1.989,0.242-3.639,0.825-4.805,1.796c-1.213,0.923-1.843,2.038-1.843,3.397c0,1.505,1.164,2.621,2.863,2.621
		c0.872,0,1.795-0.339,2.719-1.067c0.726-0.534,1.065-1.31,1.065-2.379V53.615z"/>
	<path clip-path="url(#SVGID_2_)" fill="#4E4D43" d="M344.981,63.469c0,0.873-0.291,0.972-0.971,0.972
		c-0.679,0-1.115-0.05-1.455-0.05c-0.924-0.097-2.039-0.146-3.349-0.146c-2.769,0-5.146,0.195-6.651,0.195
		c-0.533,0-0.774-0.146-0.774-0.486v-0.583c0-0.582,0.34-0.97,1.065-1.067c1.99-0.291,2.719-1.115,2.769-3.301l0.049-2.621V41.384
		c0-2.573-0.196-4.175-0.536-4.757c-0.386-0.631-1.212-0.971-2.425-1.02c-0.631,0-0.922-0.388-0.922-1.067V34.2
		c0-0.485,0.291-0.728,0.873-0.728h0.29c0.099,0.048,0.291,0.048,0.533,0.048c2.33,0,4.029-0.582,5.147-1.747l0.824-0.874
		c0.388-0.388,0.679-0.582,0.971-0.582c-0.049,0,0.097,0,0.437,0.097l0.484,0.097c0.34,0.097,0.536,0.291,0.536,0.583
		c0,0.097,0,0.339-0.098,0.679c-0.147,0.825-0.291,1.602-0.341,2.378c-0.098,1.165-0.146,3.398-0.146,6.65v15.775
		c0,1.553,0.097,2.767,0.244,3.592c0.242,1.262,1.019,1.942,2.28,2.038c0.775,0.098,1.164,0.34,1.164,0.778V63.469z"/>
	<path clip-path="url(#SVGID_2_)" fill="#4E4D43" d="M359.445,63.663c0,0.533-0.485,0.776-1.408,0.776
		c-0.631,0-1.165-0.049-1.504-0.049c-1.069-0.096-2.524-0.145-4.321-0.145c-0.824,0-1.892,0.049-3.203,0.096l-2.039,0.098
		c-0.192,0-0.34-0.049-0.435-0.049c-0.196-0.049-0.245-0.243-0.245-0.534v-0.534c0-0.532,0.34-0.873,1.069-1.019
		c1.116-0.243,1.844-0.679,2.183-1.262c0.245-0.438,0.389-1.263,0.389-2.476l0.05-5.534c0-1.989-0.147-3.445-0.438-4.271
		c-0.291-0.922-0.97-1.359-1.941-1.359l-0.192,0.048h-0.196c-0.824,0-0.922-0.097-0.922-0.825v-0.485
		c0-0.437,0.098-0.728,0.245-0.825c0.192-0.098,0.677-0.146,1.455-0.146c0.728-0.049,1.408-0.194,2.088-0.437
		c0.97-0.34,1.746-0.631,2.33-0.971l1.601-1.067c0.146-0.146,0.34-0.195,0.533-0.195c0,0,0.194,0,0.534,0.097l0.437,0.146
		c0.291,0.097,0.438,0.388,0.438,0.874v0.436c-0.291,1.991-0.438,4.612-0.39,7.961l0.05,5.29c0,1.942,0.192,3.204,0.532,3.738
		c0.341,0.534,1.068,0.971,2.232,1.214c0.729,0.145,1.069,0.436,1.069,0.874V63.663z M354.349,37.695
		c-0.924,0.776-1.94,1.165-3.059,1.165c-1.601,0-2.427-0.68-2.427-2.087c0-0.971,0.485-1.893,1.408-2.67
		c0.922-0.825,1.989-1.213,3.106-1.213c1.553,0,2.328,0.679,2.328,2.087C355.706,35.996,355.271,36.87,354.349,37.695"/>
	<path clip-path="url(#SVGID_2_)" fill="#4E4D43" d="M375.509,62.935c-1.358,1.456-3.153,2.186-5.291,2.186
		c-1.989,0-3.639-0.632-4.998-1.895c-0.776-0.728-1.262-1.649-1.506-2.767c-0.144-0.63-0.192-1.747-0.192-3.252V46.141
		c0-0.437-0.291-0.632-0.873-0.632h-1.7c-0.777,0-1.166-0.291-1.166-0.873v-0.34c0-0.437,0.389-0.825,1.166-1.068
		c2.67-0.922,4.661-2.621,5.969-5.145c0.389-0.776,0.875-1.165,1.408-1.165h0.291c0.245,0,0.438,0.049,0.536,0.097
		c0.192,0.097,0.291,0.583,0.291,1.408v4.659h3.882c0.243,0,0.631,0,1.069-0.097c0.532-0.048,0.873-0.097,1.114-0.097
		c0.34,0,0.486,0.243,0.486,0.631v1.117c0,0.679-0.097,0.97-0.826,0.97c-0.192,0-0.34,0-0.435-0.048
		c-0.147,0-0.972-0.049-1.457-0.049h-3.834v10.438c0,2.474,0.192,4.027,0.63,4.658c0.438,0.681,1.165,1.02,2.086,1.02
		c0.389,0,0.875-0.146,1.457-0.339c0.631-0.195,1.069-0.34,1.311-0.34c0.193,0,0.341,0.049,0.438,0.096
		c0.049,0.049,0.145,0.098,0.243,0.195l0.192,0.242c0.146,0.146,0.195,0.341,0.195,0.534
		C375.995,62.304,375.849,62.595,375.509,62.935"/>
	<path clip-path="url(#SVGID_2_)" fill="#4E4D43" d="M390.264,63.663c0,0.533-0.485,0.776-1.408,0.776
		c-0.631,0-1.165-0.049-1.504-0.049c-1.069-0.096-2.524-0.145-4.321-0.145c-0.824,0-1.892,0.049-3.203,0.096l-2.039,0.098
		c-0.192,0-0.34-0.049-0.435-0.049c-0.196-0.049-0.245-0.243-0.245-0.534v-0.534c0-0.532,0.34-0.873,1.069-1.019
		c1.116-0.243,1.844-0.679,2.183-1.262c0.245-0.438,0.389-1.263,0.389-2.476l0.049-5.534c0-1.989-0.146-3.445-0.438-4.271
		c-0.291-0.922-0.97-1.359-1.941-1.359l-0.192,0.048h-0.196c-0.824,0-0.922-0.097-0.922-0.825v-0.485
		c0-0.437,0.098-0.728,0.245-0.825c0.192-0.098,0.677-0.146,1.455-0.146c0.728-0.049,1.407-0.194,2.088-0.437
		c0.97-0.34,1.746-0.631,2.33-0.971l1.601-1.067c0.146-0.146,0.34-0.195,0.533-0.195c0,0,0.194,0,0.534,0.097l0.437,0.146
		c0.291,0.097,0.438,0.388,0.438,0.874v0.436c-0.291,1.991-0.438,4.612-0.39,7.961l0.05,5.29c0,1.942,0.192,3.204,0.532,3.738
		c0.341,0.534,1.068,0.971,2.232,1.214c0.729,0.145,1.069,0.436,1.069,0.874V63.663z M385.167,37.695
		c-0.924,0.776-1.94,1.165-3.059,1.165c-1.602,0-2.427-0.68-2.427-2.087c0-0.971,0.485-1.893,1.407-2.67
		c0.923-0.825,1.99-1.213,3.107-1.213c1.553,0,2.328,0.679,2.328,2.087C386.524,35.996,386.089,36.87,385.167,37.695"/>
	<path clip-path="url(#SVGID_2_)" fill="#4E4D43" d="M409.53,62.984c-1.99,1.406-4.222,2.086-6.746,2.086
		c-3.106,0-5.631-0.97-7.621-2.96c-1.94-1.991-2.961-4.563-2.961-7.621c0-3.351,1.117-6.213,3.252-8.495
		c2.187-2.329,4.855-3.494,8.011-3.494c2.765,0,5.047,0.825,6.843,2.572c1.749,1.699,2.67,3.883,2.67,6.504
		c0,0.68-0.146,1.118-0.535,1.263c-0.192,0.098-0.726,0.146-1.601,0.146h-11.746c-0.582,0-0.922,0.193-1.021,0.533
		c-0.096,0.193-0.096,0.484-0.096,0.824c0,1.895,0.68,3.544,2.037,5c1.36,1.407,2.915,2.137,4.758,2.137
		c1.795,0,3.399-0.583,4.854-1.748l1.748-1.408c0.192-0.096,0.34-0.194,0.532-0.194c0.193,0,0.341,0.099,0.486,0.194l0.291,0.195
		h0.049c0.194,0.193,0.291,0.388,0.291,0.631C413.026,60.07,411.86,61.333,409.53,62.984 M405.745,46.237
		c-0.825-0.922-1.797-1.359-2.961-1.359c-1.213,0-2.33,0.534-3.252,1.553c-0.922,1.02-1.407,2.184-1.407,3.544
		c0,0.388,0.194,0.581,0.581,0.679h1.068h5.534c0.728,0,1.166-0.048,1.359-0.146c0.241-0.097,0.389-0.484,0.389-1.066
		C407.057,48.179,406.618,47.159,405.745,46.237"/>
	<path clip-path="url(#SVGID_2_)" fill="#4E4D43" d="M430.981,62.983c-1.649,1.407-3.688,2.087-6.164,2.087
		c-1.163,0-2.379-0.146-3.641-0.438l-1.699-0.387c-0.291-0.05-0.533-0.099-0.873-0.099c-0.291,0-0.582,0.099-0.776,0.243
		l-0.485,0.389c-0.193,0.146-0.388,0.242-0.582,0.242c-0.146,0-0.291-0.049-0.437-0.145l-0.341-0.244
		c-0.241-0.193-0.389-0.387-0.389-0.678c0-0.243,0.147-0.681,0.34-1.312c0.195-0.534,0.291-1.117,0.244-1.649l-0.195-2.816
		c0-0.825,0.341-1.31,0.972-1.456l0.388-0.097c-0.049,0,0.049-0.048,0.243-0.048c0.486,0,0.826,0.532,0.921,1.649
		c0.147,1.262,0.778,2.281,1.942,3.107c1.166,0.873,2.573,1.261,4.176,1.261c2.716,0,4.076-0.97,4.076-2.815
		c0-0.873-0.341-1.553-0.972-2.087c-0.631-0.484-1.94-1.02-3.883-1.554c-2.522-0.727-4.32-1.504-5.386-2.378
		c-1.409-1.116-2.088-2.621-2.088-4.465c0-2.039,0.679-3.689,2.134-4.951c1.457-1.262,3.35-1.893,5.631-1.893
		c0.487,0,1.166,0.048,2.088,0.194l2.039,0.291c0.437,0.097,0.728,0.097,0.728,0.097c0.437,0,1.019-0.097,1.601-0.388
		c0.584-0.243,1.021-0.389,1.166-0.389c0.194,0,0.34,0.049,0.438,0.243l0.192,0.243c0.147,0.194,0.242,0.388,0.242,0.534
		c0,0.145-0.095,0.485-0.242,0.922c-0.192,0.534-0.291,1.214-0.291,2.038c0,0.098,0.049,0.437,0.049,0.972
		c0,0.533,0.05,0.97,0.05,1.407v0.194c0,0.777-0.341,1.165-0.972,1.165l-0.535,0.049c-0.34,0-0.582-0.437-0.729-1.311
		c-0.145-1.116-0.775-2.039-1.794-2.767c-0.971-0.776-2.137-1.165-3.448-1.165c-2.231,0-3.785,1.117-3.785,2.67
		c0,0.825,0.39,1.554,1.164,2.039c0.778,0.485,2.33,1.068,4.612,1.65c1.748,0.486,3.058,0.971,3.835,1.407
		c1.942,1.166,2.913,2.865,2.913,5.146C433.459,59.829,432.632,61.576,430.981,62.983"/>
	<path clip-path="url(#SVGID_2_)" fill="#734D5F" d="M128.733,63.462c0,0.825-0.242,1.021-1.407,1.021
		c-0.389,0-1.069-0.049-2.039-0.049c-3.156-0.098-4.951-0.146-5.29-0.146l-4.321,0.097c-0.97,0-2.087,0.05-3.349,0.099h-0.291
		c-0.825,0-1.213-0.195-1.213-0.631v-0.729c0-0.631,0.436-0.971,1.358-1.019c1.99-0.098,3.301-0.582,3.835-1.408
		c0.389-0.63,0.582-2.33,0.582-5.047v-9.466c0-3.301-0.048-5.291-0.193-6.067c-0.147-0.728-0.486-1.116-1.068-1.116
		c-0.291,0-0.777,0.096-1.505,0.242l-1.117,0.243c-0.727,0.145-1.116,0.243-1.213,0.243c-0.437,0-0.679-0.243-0.679-0.777v-0.583
		c0-0.533,0.388-0.97,1.165-1.213c3.931-1.311,6.795-2.912,8.687-4.757c0.632-0.631,1.118-0.922,1.505-0.922
		c0.243,0,0.486,0.049,0.729,0.146l0.242,0.097c0.291,0.145,0.437,0.291,0.437,0.631c0,0.048-0.048,0.194-0.097,0.388
		c-0.486,2.087-0.728,5.048-0.728,8.882v14.368c0,2.475,0.242,4.029,0.631,4.708c0.582,0.873,1.942,1.36,4.126,1.408
		c0.824,0.048,1.213,0.291,1.213,0.874V63.462z"/>
	<path clip-path="url(#SVGID_2_)" fill="#734D5F" d="M148.583,61.667c-2.232,2.231-4.902,3.301-8.154,3.301
		c-3.398,0-6.164-1.117-8.251-3.301c-2.136-2.233-3.156-5.098-3.156-8.641c0-4.854,2.039-9.465,6.165-13.785
		c3.009-3.155,6.552-5.485,10.726-7.038c2.185-0.825,3.69-1.213,4.466-1.213c0.34,0,0.534,0.145,0.728,0.436l0.146,0.243
		c0.049,0.097,0.097,0.242,0.097,0.34c0,0.291-0.243,0.582-0.728,0.728l-1.796,0.63c-2.427,0.826-4.66,2.088-6.698,3.738
		c-0.777,0.631-1.554,1.407-2.33,2.281c-1.069,1.214-2.039,2.815-2.912,4.806c1.505-0.728,3.057-1.068,4.708-1.068
		c2.961,0,5.387,1.019,7.329,3.009c1.99,1.941,2.961,4.417,2.961,7.426C151.884,56.764,150.768,59.481,148.583,61.667
		 M143.875,49.095c-1.359-2.087-3.01-3.155-4.806-3.155c-2.621,0-3.931,1.893-3.931,5.631c0,2.912,0.679,5.533,2.039,7.718
		c1.359,2.184,2.912,3.301,4.708,3.301c2.524,0,4.077-2.378,4.077-6.164C145.962,53.657,145.282,51.23,143.875,49.095"/>
</g>
</svg>
